<svg width="7" height="12" viewBox="0 0 7 12" fill="none" xmlns="http://www.w3.org/2000/svg">
<path d="M6.53255 6.5306L1.53255 11.5306C1.39165 11.6715 1.20056 11.7506 1.0013 11.7506C0.802043 11.7506 0.610947 11.6715 0.470051 11.5306C0.329155 11.3897 0.25 11.1986 0.25 10.9993C0.25 10.8001 0.329155 10.609 0.470051 10.4681L4.93943 5.99997L0.471301 1.5306C0.401536 1.46083 0.346196 1.37801 0.308439 1.28686C0.270683 1.19571 0.25125 1.09801 0.25125 0.999348C0.25125 0.900686 0.270683 0.802989 0.308439 0.711837C0.346196 0.620685 0.401536 0.537863 0.471301 0.468098C0.541066 0.398333 0.623889 0.342993 0.715041 0.305236C0.806193 0.26748 0.903889 0.248047 1.00255 0.248047C1.10121 0.248047 1.19891 0.26748 1.29006 0.305236C1.38121 0.342993 1.46404 0.398333 1.5338 0.468098L6.5338 5.4681C6.60364 5.53786 6.65902 5.62072 6.69677 5.71193C6.73451 5.80313 6.75388 5.9009 6.75377 5.99961C6.75365 6.09832 6.73405 6.19604 6.69609 6.28715C6.65813 6.37827 6.60255 6.461 6.53255 6.5306Z" fill="#898B94"/>
</svg>
